#!OML:ASF E:/inclinewalkrobotboard/Project1/Captureday1/Session1/subject1.ASF
:FULLY-SPECIFIED
:DEGREES
151
root 0 0 0 1.4278112909844958 -3.538052639184198 1.893437763864693
lowerback 11.967319029869953 0.8924173331599969 -0.10028133118569382
upperback -4.435473968465085 1.118277216613852 -0.6300334805389111
thorax -11.555740849940108 0.5137156536510784 -0.8679859604251071
lowerneck -6.092972961061503 1.6543257477097784 4.625417598641949
upperneck 18.4470249689747 3.159015928889683 -8.271915283848955
head 6.778978395371577 1.1643350242424702 -3.1897756804133155
rclavicle -1.7435323139790967E-16 -9.704344631137498E-16
rhumerus 22.224267495419078 15.948390853173924 -46.54280631707067
rradius 74.31084346463774
rwrist 27.891201934444677
rhand -34.85554795169705 -59.75747979121605
rfingers 7.12502
rthumb -8.015499288741553 -89.56995106266808
lclavicle -1.7302687670768486E-16 -9.491746675702062E-16
lhumerus 22.77385614853262 -12.790832294953137 43.645454404664264
lradius 71.30548861669216
lwrist -23.626691758330452
lhand -45.33008674561762 -73.1626178949385
lfingers 7.12502
lthumb -18.087680840125692 -43.944893321244706
rfemur -25.679135047426286 -2.1905144577654747 16.63365940679842
rtibia 54.78262706008151
rfoot -27.42010227034243 -16.519511783983127
rtoes -17.788877888700732
lfemur -21.736863248728945 1.2152769619837882 -18.19325879492406
ltibia 48.547301996735655
lfoot -23.65882841847098 -3.598150921210166
ltoes -15.36481159969328
152
root 0 0 0 1.4255150761498472 -3.5283104638807394 1.904824656705639
lowerback 11.966534800741522 0.8867098958982845 -0.11400394768506661
upperback -4.432173077049708 1.1091940812130312 -0.6290948561456075
thorax -11.552422238488775 0.5096150649042308 -0.857892804250518
lowerneck -6.097366164243713 1.6535725595009187 4.620685186491759
upperneck 18.447100317601784 3.1570864396486464 -8.26863148547558
head 6.779555914287576 1.16353189845649 -3.1879021156676126
rclavicle -1.751226510374435E-16 -9.707342303107492E-16
rhumerus 22.20459362154964 15.935896575363591 -46.55490170487926
rradius 74.29320566515943
rwrist 27.882392248987273
rhand -34.849134274857974 -59.72797960350939
rfingers 7.12502
rthumb -8.009204578959949 -89.54071623314294
lclavicle -1.732328435987721E-16 -9.484346991052225E-16
lhumerus 22.787856980362175 -12.794083026058818 43.635980973006625
lradius 71.31627570544403
lwrist -23.633587816048948
lhand -45.33472154309424 -73.1851826161886
lfingers 7.12502
lthumb -18.09175915568337 -43.96845610121578
rfemur -25.646672591172113 -2.174740293139812 16.65694464323148
rtibia 54.745713604737574
rfoot -27.37875726372555 -16.497655788408743
rtoes -17.74242533379199
lfemur -21.76838820456885 1.223791460999744 -18.18750520355525
ltibia 48.59525284784549
lfoot -23.693032306404852 -3.6024659096756975
ltoes -15.39385517763748
153
root 0 0 0 1.4253246697608324 -3.5274819730680655 1.9058485135893253
lowerback 11.966535301772419 0.8862389309541484 -0.11513103623641896
upperback -4.431946247783523 1.1084615256107517 -0.6290605644340764
thorax -11.552230579036932 0.5092896667057323 -0.8571471025236802
lowerneck -6.097545769105014 1.6535635771170212 4.620431261352927
upperneck 18.447116943270913 3.156990733934571 -8.26850469097343
head 6.779586722431857 1.1634870154542036 -3.187822909615197
rclavicle -1.7466808478461966E-16 -9.70537301745763E-16
rhumerus 22.212270910071183 15.940438627054279 -46.549908852802204
rradius 74.29966438198858
rwrist 27.88586517178075
rhand -34.85159571032498 -59.73875227559535
rfingers 7.12502
rthumb -8.011619947019627 -89.55142664135774
lclavicle -1.726500833097373E-16 -9.490398389115729E-16
lhumerus 22.799140948315294 -12.797167484995027 43.62786730906811
lradius 71.32532795119057
lwrist -23.63996003408291
lhand -45.33863241780982 -73.20651158810297
lfingers 7.12502
lthumb -18.095772128208758 -43.9882296115254
rfemur -25.62882802259736 -2.1663564544502405 16.669430843061303
rtibia 54.72629588308926
rfoot -27.35690396351024 -16.48518940455306
rtoes -17.717191562589804
lfemur -21.78045592984979 1.2269174314141036 -18.184970433283834
ltibia 48.61357949199155
lfoot -23.706385986956764 -3.6039369062289452
ltoes -15.404589959608607
154
root 0 0 0 1.425280803608893 -3.52816298714801 1.9047359834132742
lowerback 11.966526156086056 0.8866378428296195 -0.1140039083472072
upperback -4.431932422716801 1.1091294519391628 -0.6289924432696222
thorax -11.552140601829198 0.5095870513622619 -0.8578060788318606
lowerneck -6.097764372209898 1.653364123807332 4.62042848387834
upperneck 18.44718644882589 3.1567531374448463 -8.268271531369344
head 6.779669935614847 1.1633873511628123 -3.1878042492102194
rclavicle -1.7461215250316762E-16 -9.705397873840422E-16
rhumerus 22.214377713414073 15.941795260175583 -46.548566041863
rradius 74.3016118650804
rwrist 27.886851206456683
rhand -34.85226703177305 -59.74206085677493
rfingers 7.12502
rthumb -8.012288993374284 -89.55477412554684
lclavicle -1.7258726941532668E-16 -9.489755163027248E-16
lhumerus 22.803869426449697 -12.79832622641019 43.624630579487196
lradius 71.32901846510423
lwrist -23.642397458623726
lhand -45.340197961147055 -73.21465322606296
lfingers 7.12502
lthumb -18.09724115475087 -43.9962747338502
rfemur -25.6136747327731 -2.159156876547364 16.680105551734986
rtibia 54.70948753840997
rfoot -27.338362871810965 -16.475063809972394
rtoes -17.695969688904164
lfemur -21.792491338744046 1.229917754417887 -18.182576249721365
ltibia 48.630583493447794
lfoot -23.719110459924487 -3.6049651688090485
ltoes -15.414594767732957
155
root 0 0 0 1.425416388089984 -3.5295727119833575 1.902767912659827
lowerback 11.966570053679908 0.8874639561338721 -0.11186112929576242
upperback -4.432169643681517 1.1104732885021749 -0.6289952243706992
thorax -11.552302446102146 0.5101891467117042 -0.8592132205684399
lowerneck -6.097659959919425 1.6532222034244717 4.620772705746082
upperneck 18.447232229301935 3.1566649888515657 -8.268284290536267
head 6.779701183145463 1.163350792000514 -3.187921967185712
rclavicle -1.7455915416563915E-16 -9.705291903002536E-16
rhumerus 22.21674496302817 15.94335363147819 -46.54713828896792
rradius 74.30381149056561
rwrist 27.887932929319447
rhand -34.85305144196475 -59.74582678528026
rfingers 7.12502
rthumb -8.013056080847917 -89.5585059111047
lclavicle -1.7257666969598631E-16 -9.489713119253593E-16
lhumerus 22.805436465276987 -12.79871185322372 43.62354222402236
lradius 71.33024662616327
lwrist -23.643214717260694
lhand -45.34072488381069 -73.21734877248485
lfingers 7.12502
lthumb -18.097749069123306 -43.99903210188795
rfemur -25.600796572986997 -2.153076619770605 16.689159594693177
rtibia 54.69541472741953
rfoot -27.32252912417013 -16.46640093134121
rtoes -17.677965652158857
lfemur -21.80048132001273 1.231875214386871 -18.181016052481645
ltibia 48.64165968145022
lfoot -23.72751539227983 -3.605585549487783
ltoes -15.421178343567018
156
root 0 0 0 1.4256491604846904 -3.5315090795173285 1.9001491397022339
lowerback 11.966645799671447 0.8885986947411331 -0.10895752047258811
upperback -4.4325497648770185 1.1123123505308212 -0.6290321356607654
thorax -11.552597914129128 0.5110138082931657 -0.8611566304035431
lowerneck -6.097395487854843 1.6530889373831845 4.621326303323712
upperneck 18.447284478806488 3.1566311980374473 -8.26841257313555
head 6.779717995319508 1.1633371962694294 -3.188117817327855
rclavicle -1.745154951951814E-16 -9.705188287401316E-16
rhumerus 22.218913532278755 15.944797488634423 -46.54583349970649
rradius 74.30582520126208
rwrist 27.888913530620794
rhand -34.85376801350135 -59.749257496178885
rfingers 7.12502
rthumb -8.013754681849768 -89.56190167328508
lclavicle -1.7258375396015245E-16 -9.489632909399626E-16
lhumerus 22.804901020584605 -12.798577081850624 43.62391495217656
lradius 71.3298286049215
lwrist -23.642933581887455
lhand -45.34054400537562 -73.2164108669642
lfingers 7.12502
lthumb -18.097579056288644 -43.998126986280354
rfemur -25.591445654734876 -2.1486855055504828 16.695714155700536
rtibia 54.68527915014546
rfoot -27.31109223567269 -16.46013313072973
rtoes -17.66492774970802
lfemur -21.806417438197244 1.2332736390333316 -18.1798529250719
ltibia 48.64954094370571
lfoot -23.73371330329742 -3.6058814784104722
ltoes -15.425844678775784
157
root 0 0 0 1.425329638368554 -3.532999991515551 1.8973282568519483
lowerback 11.966491916170677 0.8894671793954598 -0.1063603986656233
upperback -4.4322003763718385 1.1137827080879263 -0.6287104324838783
thorax -11.551973039567427 0.5116588871067722 -0.8624553240821488
lowerneck -6.098645217292101 1.6523361477783365 4.620821848086846
upperneck 18.447463611404736 3.1556507264881 -8.267276741909708
head 6.780028207491869 1.1629334144632408 -3.187834438845543
rclavicle -1.7507237437970055E-16 -9.707406617598725E-16
rhumerus 22.209367520588877 15.93907207270466 -46.55195467631917
rradius 74.2976022067397
rwrist 27.884602774247032
rhand -34.85070373757162 -59.73561913480513
rfingers 7.12502
rthumb -8.010724670831522 -89.54834314105148
lclavicle -1.7303896586698228E-16 -9.482825342732686E-16
lhumerus 22.801240084150084 -12.797421778762844 43.62670762797484
lradius 71.32677874476614
lwrist -23.640581286048686
lhand -45.33922535061405 -73.20833359968185
lfingers 7.12502
lthumb -18.096022375627747 -43.99142637204609
rfemur -25.56481271171308 -2.135967224695401 16.714614806056233
rtibia 54.65578321198036
rfoot -27.27786649411803 -16.44253651277743
rtoes -17.627503459486572
lfemur -21.83107073742553 1.2394084660291282 -18.175433711233907
ltibia 48.68357182650262
lfoot -23.759938943194854 -3.607747401362633
ltoes -15.44653369087951
